<mxfile host="65bd71144e">
    <diagram id="K_mKQcaiyr9ggSpkGDfw" name="Page-1">
        <mxGraphModel dx="1540" dy="849" grid="1" gridSize="10" guides="1" tooltips="1" connect="1" arrows="1" fold="1" page="1" pageScale="1" pageWidth="850" pageHeight="1100" math="0" shadow="0">
            <root>
                <mxCell id="0"/>
                <mxCell id="1" parent="0"/>
                <mxCell id="3" value="Text" style="text;html=1;align=center;verticalAlign=middle;resizable=0;points=[];autosize=1;strokeColor=none;fillColor=none;fontFamily=Comic Sans MS Cursiva;" vertex="1" parent="1">
                    <mxGeometry x="155" y="245" width="50" height="30" as="geometry"/>
                </mxCell>
                <mxCell id="4" value="dfdf" style="text;html=1;align=center;verticalAlign=middle;resizable=0;points=[];autosize=1;strokeColor=none;fillColor=none;fontFamily=Comic Sans MS Cursiva;" vertex="1" parent="1">
                    <mxGeometry x="290" y="335" width="40" height="30" as="geometry"/>
                </mxCell>
            </root>
        </mxGraphModel>
    </diagram>
</mxfile>